<?xml version="1.0" encoding="UTF-8"?>
<svg width="960" height="540" viewBox="0 0 960 540" xmlns="http://www.w3.org/2000/svg">
  <defs>
    <linearGradient id="bg" x1="0%" y1="0%" x2="100%" y2="100%">
      <stop offset="0%" stop-color="#DAF6FF"/>
      <stop offset="100%" stop-color="#BAE6FD"/>
    </linearGradient>
    <linearGradient id="card" x1="0%" y1="0%" x2="100%" y2="100%">
      <stop offset="0%" stop-color="#FFFFFF" stop-opacity="0.95"/>
      <stop offset="100%" stop-color="#E0F7FF" stop-opacity="0.9"/>
    </linearGradient>
    <filter id="shadow" x="-10%" y="-10%" width="120%" height="120%">
      <feDropShadow dx="0" dy="18" stdDeviation="24" flood-color="#DAF6FF" flood-opacity="0.25"/>
    </filter>
  </defs>
  <rect width="960" height="540" fill="url(#bg)"/>
  <g transform="translate(80 100)" filter="url(#shadow)">
    <rect width="800" height="340" rx="32" fill="url(#card)"/>
  </g>
  <g transform="translate(120 160)">
    <text font-family="Segoe UI, Arial, sans-serif" font-size="22" font-weight="600" fill="#0F4C81">
      PASSO A PASSO · DESBLOQUEIO DE BENEFÍCIO
    </text>
    <text font-family="Segoe UI, Arial, sans-serif" font-size="46" font-weight="700" fill="#0F4C81" y="68">
      Libere seu benefício para consignado
    </text>
    <text font-family="Segoe UI, Arial, sans-serif" font-size="24" fill="#0F4C81" y="116">
      Conferência no Meu INSS, assinatura digital e suporte JD CRED VIP
    </text>
  </g>
  <g transform="translate(620 210)">
    <rect x="-40" y="-70" width="240" height="210" rx="32" fill="#E6FBFF" opacity="0.95"/>
    <rect x="-10" y="-20" width="58" height="140" rx="18" fill="#38BDF8"/>
    <rect x="70" y="-40" width="66" height="160" rx="22" fill="#0EA5E9"/>
    <rect x="150" y="-5" width="48" height="110" rx="16" fill="#CFFAFE" opacity="0.9"/>
    <circle cx="152" cy="-60" r="32" fill="#0EA5E9" opacity="0.85"/>
    <circle cx="96" cy="-72" r="26" fill="#38BDF8" opacity="0.6"/>
    <circle cx="190" cy="66" r="36" fill="#FDE68A"/>
    <path d="M-24 32 h48 a8 8 0 0 1 0 16 h-48 a8 8 0 0 1 0-16 z" fill="#0284C7" opacity="0.35"/>
  </g>
  <g transform="translate(160 300)">
    <rect width="396" height="118" rx="26" fill="#0284C7"/>
    <text font-family="Segoe UI, Arial, sans-serif" font-size="18" fill="#F8FAFC" font-weight="600" text-anchor="middle">
      <tspan x="198" y="46">Atendimento guiado passo a passo</tspan>
      <tspan x="198" y="70">Acompanhe com a JD CRED VIP</tspan>
      <tspan x="198" y="94">Desbloqueie e contrate com segurança</tspan>
    </text>
  </g>
  <text font-family="Segoe UI, Arial, sans-serif" font-size="18" fill="#1F2937" x="80" y="500">
    JD CRED VIP - Consultoria financeira personalizada
  </text>
</svg>